{
    "asset" : {
        "generator" : "Khronos glTF Blender I/O v1.7.33",
        "version" : "2.0"
    },
    "scene" : 0,
    "scenes" : [
        {
            "name" : "Scene",
            "nodes" : [
                0,
                1,
                2,
                3,
                4,
                5
            ]
        }
    ],
    "nodes" : [
        {
            "mesh" : 0,
            "name" : "Cube",
            "scale" : [
                1,
                1.7536118030548096,
                0.962925136089325
            ]
        },
        {
            "mesh" : 1,
            "name" : "Helm",
            "scale" : [
                0.8493933081626892,
                0.9048942923545837,
                0.8364415168762207
            ],
            "translation" : [
                0,
                0.6939973831176758,
                0
            ]
        },
        {
            "mesh" : 2,
            "name" : "Horn1",
            "rotation" : [
                0,
                0,
                0.0514645017683506,
                0.9986749291419983
            ],
            "scale" : [
                0.24313576519489288,
                0.4010993540287018,
                0.17316506803035736
            ],
            "translation" : [
                -0.5237349271774292,
                1.6727341413497925,
                0.07331600785255432
            ]
        },
        {
            "mesh" : 3,
            "name" : "Horn1.001",
            "rotation" : [
                -0.01581709273159504,
                -0.09519685059785843,
                -0.28193458914756775,
                0.9545682072639465
            ],
            "scale" : [
                0.2677611708641052,
                0.508203387260437,
                0.17544156312942505
            ],
            "translation" : [
                0.8353036046028137,
                1.5815268754959106,
                0.07331600785255432
            ]
        },
        {
            "mesh" : 4,
            "name" : "eyes",
            "scale" : [
                0.14368362724781036,
                -0.10864825546741486,
                0.1050368994474411
            ],
            "translation" : [
                -0.3120404779911041,
                0.5271196961402893,
                0.6634009480476379
            ]
        },
        {
            "mesh" : 5,
            "name" : "eyes.002",
            "scale" : [
                0.14368362724781036,
                -0.10864825546741486,
                0.1050368994474411
            ],
            "translation" : [
                0.30914434790611267,
                0.5271196961402893,
                0.6634009480476379
            ]
        }
    ],
    "materials" : [
        {
            "doubleSided" : true,
            "name" : "Material",
            "pbrMetallicRoughness" : {
                "baseColorFactor" : [
                    0.11493479460477829,
                    0,
                    0.0031585211399942636,
                    1
                ],
                "metallicFactor" : 0,
                "roughnessFactor" : 0.4000000059604645
            }
        },
        {
            "doubleSided" : true,
            "name" : "Material.003",
            "pbrMetallicRoughness" : {
                "baseColorFactor" : [
                    0.03310229629278183,
                    0.011169666424393654,
                    0.0008601261652074754,
                    1
                ],
                "metallicFactor" : 0,
                "roughnessFactor" : 0.5
            }
        },
        {
            "doubleSided" : true,
            "name" : "Material.006",
            "pbrMetallicRoughness" : {
                "baseColorFactor" : [
                    0.800000011920929,
                    0.800000011920929,
                    0.800000011920929,
                    1
                ],
                "metallicFactor" : 0,
                "roughnessFactor" : 0.5
            }
        },
        {
            "doubleSided" : true,
            "name" : "Material.005",
            "pbrMetallicRoughness" : {
                "baseColorFactor" : [
                    0.800000011920929,
                    0.800000011920929,
                    0.800000011920929,
                    1
                ],
                "metallicFactor" : 0,
                "roughnessFactor" : 0.5
            }
        },
        {
            "doubleSided" : true,
            "name" : "Material.002",
            "pbrMetallicRoughness" : {
                "baseColorFactor" : [
                    0,
                    0,
                    0,
                    1
                ],
                "metallicFactor" : 0,
                "roughnessFactor" : 0.5
            }
        },
        {
            "doubleSided" : true,
            "name" : "Material.007",
            "pbrMetallicRoughness" : {
                "baseColorFactor" : [
                    0,
                    0,
                    0,
                    1
                ],
                "metallicFactor" : 0,
                "roughnessFactor" : 0.5
            }
        }
    ],
    "meshes" : [
        {
            "name" : "Cube",
            "primitives" : [
                {
                    "attributes" : {
                        "POSITION" : 0,
                        "NORMAL" : 1,
                        "TEXCOORD_0" : 2
                    },
                    "indices" : 3,
                    "material" : 0
                }
            ]
        },
        {
            "name" : "Sphere",
            "primitives" : [
                {
                    "attributes" : {
                        "POSITION" : 4,
                        "NORMAL" : 5,
                        "TEXCOORD_0" : 6
                    },
                    "indices" : 7,
                    "material" : 1
                }
            ]
        },
        {
            "name" : "Cone.001",
            "primitives" : [
                {
                    "attributes" : {
                        "POSITION" : 8,
                        "NORMAL" : 9,
                        "TEXCOORD_0" : 10,
                        "COLOR_0" : 11
                    },
                    "indices" : 12,
                    "material" : 2
                }
            ]
        },
        {
            "name" : "Cone.002",
            "primitives" : [
                {
                    "attributes" : {
                        "POSITION" : 13,
                        "NORMAL" : 14,
                        "TEXCOORD_0" : 15,
                        "COLOR_0" : 16
                    },
                    "indices" : 17,
                    "material" : 3
                }
            ]
        },
        {
            "name" : "Sphere.001",
            "primitives" : [
                {
                    "attributes" : {
                        "POSITION" : 18,
                        "NORMAL" : 19,
                        "TEXCOORD_0" : 20
                    },
                    "indices" : 21,
                    "material" : 4
                }
            ]
        },
        {
            "name" : "Sphere.003",
            "primitives" : [
                {
                    "attributes" : {
                        "POSITION" : 22,
                        "NORMAL" : 23,
                        "TEXCOORD_0" : 24
                    },
                    "indices" : 21,
                    "material" : 5
                }
            ]
        }
    ],
    "accessors" : [
        {
            "bufferView" : 0,
            "componentType" : 5126,
            "count" : 24,
            "max" : [
                1,
                1,
                1
            ],
            "min" : [
                -1,
                -1,
                -1
            ],
            "type" : "VEC3"
        },
        {
            "bufferView" : 1,
            "componentType" : 5126,
            "count" : 24,
            "type" : "VEC3"
        },
        {
            "bufferView" : 2,
            "componentType" : 5126,
            "count" : 24,
            "type" : "VEC2"
        },
        {
            "bufferView" : 3,
            "componentType" : 5123,
            "count" : 36,
            "type" : "SCALAR"
        },
        {
            "bufferView" : 4,
            "componentType" : 5126,
            "count" : 992,
            "max" : [
                0.9999997019767761,
                1,
                0.9999994039535522
            ],
            "min" : [
                -0.9999990463256836,
                -4.371138828673793e-08,
                -0.9999987483024597
            ],
            "type" : "VEC3"
        },
        {
            "bufferView" : 5,
            "componentType" : 5126,
            "count" : 992,
            "type" : "VEC3"
        },
        {
            "bufferView" : 6,
            "componentType" : 5126,
            "count" : 992,
            "type" : "VEC2"
        },
        {
            "bufferView" : 7,
            "componentType" : 5123,
            "count" : 1440,
            "type" : "SCALAR"
        },
        {
            "bufferView" : 8,
            "componentType" : 5126,
            "count" : 6400,
            "max" : [
                0.7466013431549072,
                0.9636175036430359,
                0.9868800640106201
            ],
            "min" : [
                -1.2163941860198975,
                -1.4752358198165894,
                -1.0244754552841187
            ],
            "type" : "VEC3"
        },
        {
            "bufferView" : 9,
            "componentType" : 5126,
            "count" : 6400,
            "type" : "VEC3"
        },
        {
            "bufferView" : 10,
            "componentType" : 5126,
            "count" : 6400,
            "type" : "VEC2"
        },
        {
            "bufferView" : 11,
            "componentType" : 5123,
            "count" : 6400,
            "normalized" : true,
            "type" : "VEC4"
        },
        {
            "bufferView" : 12,
            "componentType" : 5123,
            "count" : 6906,
            "type" : "SCALAR"
        },
        {
            "bufferView" : 13,
            "componentType" : 5126,
            "count" : 160,
            "max" : [
                0.5577665567398071,
                -0.11550663411617279,
                0.8337190747261047
            ],
            "min" : [
                -1.066468596458435,
                -1.3481965065002441,
                -1.2270095348358154
            ],
            "type" : "VEC3"
        },
        {
            "bufferView" : 14,
            "componentType" : 5126,
            "count" : 160,
            "type" : "VEC3"
        },
        {
            "bufferView" : 15,
            "componentType" : 5126,
            "count" : 160,
            "type" : "VEC2"
        },
        {
            "bufferView" : 16,
            "componentType" : 5123,
            "count" : 160,
            "normalized" : true,
            "type" : "VEC4"
        },
        {
            "bufferView" : 17,
            "componentType" : 5123,
            "count" : 186,
            "type" : "SCALAR"
        },
        {
            "bufferView" : 18,
            "componentType" : 5126,
            "count" : 1984,
            "max" : [
                0.9999997019767761,
                1,
                0.9999994039535522
            ],
            "min" : [
                -0.9999990463256836,
                -1,
                -0.9999987483024597
            ],
            "type" : "VEC3"
        },
        {
            "bufferView" : 19,
            "componentType" : 5126,
            "count" : 1984,
            "type" : "VEC3"
        },
        {
            "bufferView" : 20,
            "componentType" : 5126,
            "count" : 1984,
            "type" : "VEC2"
        },
        {
            "bufferView" : 21,
            "componentType" : 5123,
            "count" : 2880,
            "type" : "SCALAR"
        },
        {
            "bufferView" : 22,
            "componentType" : 5126,
            "count" : 1984,
            "max" : [
                0.9999997019767761,
                1,
                0.9999994039535522
            ],
            "min" : [
                -0.9999990463256836,
                -1,
                -0.9999987483024597
            ],
            "type" : "VEC3"
        },
        {
            "bufferView" : 23,
            "componentType" : 5126,
            "count" : 1984,
            "type" : "VEC3"
        },
        {
            "bufferView" : 24,
            "componentType" : 5126,
            "count" : 1984,
            "type" : "VEC2"
        }
    ],
    "bufferViews" : [
        {
            "buffer" : 0,
            "byteLength" : 288,
            "byteOffset" : 0
        },
        {
            "buffer" : 0,
            "byteLength" : 288,
            "byteOffset" : 288
        },
        {
            "buffer" : 0,
            "byteLength" : 192,
            "byteOffset" : 576
        },
        {
            "buffer" : 0,
            "byteLength" : 72,
            "byteOffset" : 768
        },
        {
            "buffer" : 0,
            "byteLength" : 11904,
            "byteOffset" : 840
        },
        {
            "buffer" : 0,
            "byteLength" : 11904,
            "byteOffset" : 12744
        },
        {
            "buffer" : 0,
            "byteLength" : 7936,
            "byteOffset" : 24648
        },
        {
            "buffer" : 0,
            "byteLength" : 2880,
            "byteOffset" : 32584
        },
        {
            "buffer" : 0,
            "byteLength" : 76800,
            "byteOffset" : 35464
        },
        {
            "buffer" : 0,
            "byteLength" : 76800,
            "byteOffset" : 112264
        },
        {
            "buffer" : 0,
            "byteLength" : 51200,
            "byteOffset" : 189064
        },
        {
            "buffer" : 0,
            "byteLength" : 51200,
            "byteOffset" : 240264
        },
        {
            "buffer" : 0,
            "byteLength" : 13812,
            "byteOffset" : 291464
        },
        {
            "buffer" : 0,
            "byteLength" : 1920,
            "byteOffset" : 305276
        },
        {
            "buffer" : 0,
            "byteLength" : 1920,
            "byteOffset" : 307196
        },
        {
            "buffer" : 0,
            "byteLength" : 1280,
            "byteOffset" : 309116
        },
        {
            "buffer" : 0,
            "byteLength" : 1280,
            "byteOffset" : 310396
        },
        {
            "buffer" : 0,
            "byteLength" : 372,
            "byteOffset" : 311676
        },
        {
            "buffer" : 0,
            "byteLength" : 23808,
            "byteOffset" : 312048
        },
        {
            "buffer" : 0,
            "byteLength" : 23808,
            "byteOffset" : 335856
        },
        {
            "buffer" : 0,
            "byteLength" : 15872,
            "byteOffset" : 359664
        },
        {
            "buffer" : 0,
            "byteLength" : 5760,
            "byteOffset" : 375536
        },
        {
            "buffer" : 0,
            "byteLength" : 23808,
            "byteOffset" : 381296
        },
        {
            "buffer" : 0,
            "byteLength" : 23808,
            "byteOffset" : 405104
        },
        {
            "buffer" : 0,
            "byteLength" : 15872,
            "byteOffset" : 428912
        }
    ],
    "buffers" : [
        {
            "byteLength" : 444784,
            "uri" : "data:application/octet-stream;base64,"
        }
    ]
}
